<?xml version="1.0" encoding="UTF-8"?>
<svg id="Camada_1" xmlns="http://www.w3.org/2000/svg" version="1.1" viewBox="0 0 416.8 171.85">
  <!-- Generator: Adobe Illustrator 29.8.4, SVG Export Plug-In . SVG Version: 2.1.1 Build 6)  -->
  <defs>
    <style>
      .st0 {
        fill: #0d1313;
      }
    </style>
  </defs>
  <g>
    <path class="st0" d="M100.42,99.53c2.28,5.16,4.33,8.65,6.17,10.48,1.84,1.83,3.53,2.74,5.07,2.74v1.08h-31.73v-1.08c.66,0,1.36-.11,2.09-.32.73-.21,1.41-.57,2.04-1.08.62-.5,1.14-1.16,1.54-1.99.4-.82.61-1.84.61-3.06,0-1.79-.59-4.09-1.76-6.88l-2.75-5.91c-1.32,3.23-2.9,6.18-4.74,8.87-1.84,2.69-3.8,4.98-5.89,6.88-2.09,1.9-4.22,3.39-6.39,4.46-2.17,1.08-4.28,1.61-6.33,1.61-3.97,0-6.9-.91-8.81-2.74-1.91-1.83-2.96-4.46-3.14-7.9-.18-3.44.44-7.63,1.87-12.58,1.43-4.95,3.51-10.54,6.22-16.77l17.08-38.38h1.1l27.76,62.57ZM53.49,90.6c0,3.94,1.1,6.93,3.31,8.98,2.2,2.04,4.81,3.06,7.82,3.06s5.88-1.04,8.81-3.12c2.94-2.08,5.18-5.27,6.72-9.57l-14.32-32.04-8.04,17.42c-1.47,3.37-2.55,6.29-3.25,8.76-.7,2.47-1.05,4.64-1.05,6.5Z"/>
    <path class="st0" d="M164.81,98.77c.03-.07.07-.13.1-.2.56-1.53,1.17-3.06,1.6-4.64.46-1.69.64-3.42.73-5.17.12-2.64.03-5.31.03-7.95v-37.32c0-7.42-6.65-6.53-6.65-6.53h-7.39v1.07c3.67.5,6.36,2.91,8.08,7.23,1.72,4.32,2.58,9.87,2.58,16.65v24.94c0,3.28-.52,6.19-1.57,8.72-1.05,2.53-2.41,4.62-4.1,6.26-1.68,1.64-3.61,2.89-5.78,3.75-2.17.86-4.38,1.28-6.63,1.28-.62,0-1.23-.03-1.85-.1-1.7-.17-3.38-.59-5.06-1.24-2.28-.89-4.31-2.23-6.06-4.01-1.76-1.78-3.18-4.01-4.27-6.69-1.09-2.68-1.63-5.8-1.63-9.37v-38.43c0-2.78.34-4.8,1.01-6.05.67-1.25,1.65-2.23,2.92-2.94v-1.07h-23.02v1.07c1.35.71,2.36,1.7,3.03,2.94.67,1.25,1.01,3.26,1.01,6.05v39.18c.07,4.57.92,8.58,2.53,12.04,1.61,3.46,3.72,6.35,6.34,8.67,2.62,2.32,5.61,4.05,8.98,5.19s6.77,1.71,10.22,1.71c1.35,0,2.68-.09,3.99-.26,2.05-.27,4.07-.75,6.06-1.45,3.26-1.14,6.16-2.84,8.7-5.09,2.49-2.2,4.52-4.96,6.08-8.26"/>
    <path class="st0" d="M288.8,98.77c.03-.07.07-.13.1-.2.56-1.53,1.17-3.06,1.6-4.64.46-1.69.64-3.42.73-5.17.12-2.64.03-5.31.03-7.95v-37.32c0-7.42-6.65-6.53-6.65-6.53h-7.39v1.07c3.67.5,6.36,2.91,8.08,7.23,1.72,4.32,2.58,9.87,2.58,16.65v24.94c0,3.28-.52,6.19-1.57,8.72-1.05,2.53-2.41,4.62-4.1,6.26-1.68,1.64-3.61,2.89-5.78,3.75-2.17.86-4.38,1.28-6.63,1.28-.62,0-1.23-.03-1.85-.1-1.7-.17-3.38-.59-5.06-1.24-2.28-.89-4.31-2.23-6.06-4.01-1.76-1.78-3.18-4.01-4.27-6.69-1.09-2.68-1.63-5.8-1.63-9.37v-38.43c0-2.78.34-4.8,1.01-6.05.67-1.25,1.65-2.23,2.92-2.94v-1.07h-23.02v1.07c1.35.71,2.36,1.7,3.03,2.94.67,1.25,1.01,3.26,1.01,6.05v39.18c.07,4.57.92,8.58,2.53,12.04,1.61,3.46,3.72,6.35,6.34,8.67,2.62,2.32,5.61,4.05,8.98,5.19,3.37,1.14,6.77,1.71,10.22,1.71,1.35,0,2.68-.09,3.99-.26,2.05-.27,4.07-.75,6.06-1.45,3.26-1.14,6.16-2.84,8.7-5.09,2.49-2.2,4.52-4.96,6.08-8.26"/>
    <path class="st0" d="M367.44,41.16c.72-1.3,1.72-2.33,3.01-3.08v-1.12h-19.3l-17.61,28.89-14.11-21.47-4.87-7.42h-17.59v1.12c1.36.75,2.38,1.77,3.06,3.08.68,1.31,1.02,3.41,1.02,6.33v57.32c0,2.91-.34,5.02-1.02,6.33-.68,1.31-1.7,2.33-3.06,3.08v1.12h23.27v-1.12c-1.29-.75-2.27-1.77-2.95-3.08-.68-1.31-1.02-3.41-1.02-6.33v-59.11l3.17,4.85,12.14,18.58,2.05,3.13,17.53,26.07v12.48c0,1.25.36,2.47,1.05,3.52l.65,1h17.59v-1.12c-1.29-.75-2.29-1.77-3.01-3.08-.72-1.31-1.08-3.41-1.08-6.33v-57.32c0-2.91.36-5.02,1.08-6.33ZM351.15,80.36v12.3l-15.54-23.66-.02-.03,15.56-25.52v36.91Z"/>
    <path class="st0" d="M290.26,113.67c-.61.52-1.24,1.03-1.85,1.58-.58.52-1.17,1.04-1.8,1.5-2.36,1.7-5.12,3.17-8.27,4.39-3.15,1.23-6.58,2.2-10.28,2.91-3.7.71-7.53,1.07-11.46,1.07-3.62,0-7.25-.34-10.87-1.01-3.62-.67-7.09-1.72-10.4-3.15-3.31-1.42-6.42-3.3-9.34-5.64-2.92-2.33-5.48-5.16-7.68-8.49-2.21-3.32-3.98-7.18-5.32-11.57-1.34-4.39-2.13-9.36-2.36-14.9,1.2-.61,2.34-1.27,3.43-1.95,2.71-1.7,5.1-3.62,7.15-5.77,2.88-3.01,5-6.11,6.38-9.32.72-1.67,1.22-3.33,1.52-4.99.28-1.53.38-3.05.31-4.57-.16-3.16-1.24-5.99-3.25-8.49-2.01-2.49-4.92-4.51-8.75-6.05-1.17-.47-2.45-.87-3.83-1.2-3.11-.74-6.74-1.11-10.88-1.11h-30.85v1.19c1.42.79,2.68,1.88,3.78,3.26,1.1,1.39,1.65,3.58,1.65,6.59v56.17c0,.1,0,.2,0,.3-.01,1.14-.11,2.16-.29,3.07-.27,1.36-.72,2.46-1.36,3.28-1.1,1.42-2.36,2.49-3.78,3.2v1.31h26.59v-1.31c-1.34-.71-2.56-1.78-3.66-3.2-.64-.83-1.09-1.93-1.36-3.28-.19-.98-.3-2.1-.3-3.36v-14.63l2.94-1.57,2.85-1.52c.16,8.78,1.67,16.24,4.55,22.37,2.88,6.13,6.62,11.1,11.23,14.9,4.61,3.8,9.85,6.57,15.72,8.31,5.87,1.74,12.33,2.92,18.4,2.92,5.04,0,9.49-.84,14.34-1.91,4.85-1.07,9.34-2.55,13.47-4.45,4.14-1.9,7.76-4.15,10.87-6.77.74-.62,1.44-1.27,2.09-1.92.23-.2.45-.42.68-.63v-5.57ZM201.93,80.74c-.7.46-1.43.89-2.19,1.29l-3.67,1.91-2.94,1.53v-45.11h6.62c3.15,0,5.79.81,7.92,2.43,2.13,1.62,3.72,3.7,4.79,6.23,1.06,2.53,1.58,5.38,1.54,8.55-.03,2.06-.27,4.1-.73,6.12-.25,1.09-.55,2.18-.93,3.26-1.06,3.09-2.64,5.96-4.73,8.61-1.58,2.01-3.48,3.74-5.67,5.18Z"/>
  </g>
  <g>
    <path class="st0" d="M56.87,126.09h-.5v-2.04c-.41-.52-.96-.94-1.64-1.25-.68-.31-1.46-.47-2.33-.47-1.58,0-2.87.55-3.85,1.65-.99,1.1-1.48,2.54-1.48,4.32v.17c0,1.78.49,3.23,1.47,4.33.98,1.1,2.24,1.65,3.77,1.65.88,0,1.68-.16,2.39-.47.71-.31,1.27-.73,1.68-1.25v-2.04h.5v2.21c-.45.62-1.07,1.11-1.89,1.47s-1.71.54-2.68.54c-1.69,0-3.07-.6-4.14-1.79-1.07-1.19-1.6-2.75-1.6-4.66v-.16c0-1.92.54-3.47,1.61-4.66,1.07-1.19,2.48-1.79,4.22-1.79.96,0,1.84.18,2.62.54.78.36,1.4.85,1.85,1.47v2.21Z"/>
    <path class="st0" d="M64.71,122.35v-.48h3.58v.48h-1.54v12.09h1.54v.48h-3.58v-.48h1.54v-12.09h-1.54Z"/>
    <path class="st0" d="M89.08,121.86v.48h-1.54v12.58h-.51l-8.8-12.16-.06.02v11.66h1.54v.48h-3.59v-.48h1.54v-12.09h-1.54v-.48h2.05l8.8,12.14.06-.02v-11.64h-1.54v-.48h3.58Z"/>
    <path class="st0" d="M96.92,134.92v-.48h1.54v-12.09h-1.54v-.48h9.88v2.63h-.51v-2.14h-7.33v5.53h5.93v.48h-5.93v6.08h7.33v-2.14h.51v2.63h-9.88Z"/>
    <path class="st0" d="M122.75,134.92h-.41l-5.6-12.16-.06.02v11.66h1.54v.48h-3.58v-.48h1.54v-12.09h-1.54v-.48h2.26l5.61,12.29h.06l5.63-12.29h2.28v.48h-1.54v12.09h1.54v.48h-3.58v-.48h1.54v-11.73l-.06-.02-5.63,12.23Z"/>
    <path class="st0" d="M138.33,134.44h1.01l4.94-12.58h.62l4.95,12.58h1.01v.48h-2.91v-.48h1.35l-1.35-3.42h-6.71l-1.34,3.42h1.35v.48h-2.91v-.48ZM141.41,130.54h6.33l-2.87-7.36-.26-.74h-.06l-.25.74-2.88,7.36Z"/>
  </g>
</svg>