<?xml version="1.0" encoding="UTF-8"?>
<svg id="Camada_1" xmlns="http://www.w3.org/2000/svg" version="1.1" viewBox="0 0 365.33 306.67">
  <!-- Generator: Adobe Illustrator 29.8.4, SVG Export Plug-In . SVG Version: 2.1.1 Build 6)  -->
  <defs>
    <style>
      .st0 {
        fill: #fff;
      }
    </style>
  </defs>
  <path class="st0" d="M187.42,205.8c5.1,11.57,9.72,19.4,13.83,23.5,4.11,4.1,7.91,6.15,11.36,6.15v2.41h-71.14v-2.41c1.48,0,3.05-.24,4.69-.72,1.64-.48,3.17-1.28,4.57-2.41,1.4-1.12,2.55-2.61,3.46-4.46.9-1.85,1.36-4.14,1.36-6.87,0-4.01-1.32-9.16-3.95-15.43l-6.18-13.26c-2.96,7.23-6.51,13.86-10.62,19.89-4.12,6.03-8.52,11.17-13.22,15.43-4.69,4.26-9.47,7.59-14.33,10-4.86,2.41-9.6,3.62-14.2,3.62-8.89,0-15.48-2.05-19.76-6.15-4.28-4.1-6.63-10-7.04-17.72-.41-7.71.99-17.11,4.2-28.2,3.21-11.09,7.86-23.62,13.96-37.6l38.29-86.05h2.47l62.25,140.29ZM82.19,185.79c0,8.84,2.47,15.55,7.41,20.13,4.94,4.58,10.78,6.87,17.54,6.87s13.17-2.33,19.76-6.99c6.58-4.66,11.61-11.81,15.07-21.45l-32.11-71.83-18.03,39.05c-3.3,7.55-5.72,14.1-7.29,19.64-1.57,5.54-2.35,10.41-2.35,14.58Z"/>
  <path class="st0" d="M299.07,163.84v-83.68c0-16.64-14.91-14.65-14.91-14.65h-16.57v2.4c8.22,1.12,14.26,6.52,18.13,16.2,3.86,9.68,5.79,22.12,5.79,37.33v55.93c0,7.36-1.18,13.88-3.53,19.56-2.35,5.68-5.41,10.36-9.19,14.04-3.78,3.68-8.1,6.48-12.97,8.4-4.87,1.92-9.82,2.88-14.85,2.88-1.38,0-2.76-.08-4.14-.22-3.81-.39-7.59-1.31-11.35-2.78-5.12-2-9.65-5-13.6-9-3.95-4-7.14-9-9.57-15-2.44-6-3.65-13-3.65-21v-86.17c0-6.24.75-10.76,2.27-13.56,1.51-2.8,3.69-5,6.55-6.6v-2.4h-51.61v2.4c3.02,1.6,5.29,3.8,6.8,6.6,1.51,2.8,2.27,7.32,2.27,13.56v67.41l20.7,46.66s0,.01,0,.02c5.76,13.06,9.68,18.49,11.95,20.75,3.37,3.36,5.01,3.53,5.02,3.53,4.97,0,8.99,4.03,8.99,9v.47c5.38,1.28,10.8,1.94,16.27,1.94,3.02,0,6-.2,8.95-.59,4.6-.61,9.13-1.69,13.58-3.25,7.3-2.56,13.8-6.36,19.51-11.4,5.59-4.94,10.13-11.12,13.63-18.52h0c.07-.15.16-.29.22-.44,1.26-3.44,2.62-6.86,3.59-10.4,1.04-3.79,1.44-7.68,1.63-11.59.28-5.92.07-11.9.07-17.83Z"/>
</svg>