<svg width="1100" height="260" viewBox="200 620 1100 260" fill="none" xmlns="http://www.w3.org/2000/svg">
<g clip-path="url(#clip0_13_507)">
<path d="M516.82 748.173C516.82 748.173 516.093 749.191 516.093 750.427C516.093 751.664 516.82 752.682 516.82 752.682C527.362 765.48 532.888 774.643 532.888 793.187C532.888 811.804 520.164 829.984 505.114 839.219C490.064 848.455 475.96 850.855 424.194 850.855H232.035C228.763 850.855 226 848.164 226 844.819V819.948C226 816.603 228.763 813.912 232.035 813.912H458.583C473.56 813.912 491.228 808.022 491.228 790.86C491.228 773.625 470.725 768.607 457.711 768.607H232.035C228.763 768.607 226 765.917 226 762.572V738.283C226 734.938 228.763 732.174 232.035 732.174H457.711C470.725 732.174 491.228 727.229 491.228 709.995C491.228 692.832 473.56 686.942 458.583 686.942H232.035C228.763 686.942 226 684.251 226 680.906V656.036C226 652.691 228.763 650 232.035 650H424.194C475.96 650 490.064 652.4 505.114 661.635C520.164 670.871 532.888 689.051 532.888 707.667C532.888 726.211 527.362 735.374 516.82 748.173Z" fill="#E2231A"/>
<path d="M708.252 737.919C711.015 737.919 713.196 740.174 713.196 742.937V769.916C713.196 772.68 711.015 774.861 708.252 774.861H635.983C616.934 774.861 599.994 770.207 591.996 761.772C584.072 753.409 581.309 737.919 581.309 718.139V654.945C581.309 652.182 583.563 650 586.326 650H620.061C622.823 650 625.005 652.182 625.005 654.945V711.158C625.005 737.047 642.09 737.919 654.305 737.919H708.252Z" fill="#E2231A"/>
<path d="M1197.99 656.036C1217.33 661.199 1247.5 676.689 1261.75 702.868C1275.93 729.047 1274.99 750.5 1274.99 750.5C1274.99 750.5 1275.93 771.88 1261.75 798.059C1247.5 824.239 1217.33 839.801 1197.99 844.964C1178.65 850.055 1132.92 851 1105.29 851H973.261C969.917 851 967.154 848.309 967.154 844.964V820.094C967.154 816.749 969.917 814.058 973.261 814.058H1090.46C1134.3 814.058 1167.82 812.894 1183.96 809.04C1200.03 805.186 1212.61 796.968 1223.08 782.933C1233.47 768.898 1232.31 750.5 1232.31 750.5C1232.31 750.5 1233.47 732.102 1223.08 718.067C1212.61 704.031 1200.03 695.814 1183.96 691.96C1167.82 688.106 1134.3 686.942 1090.46 686.942H973.261C969.917 686.942 967.154 684.251 967.154 680.906V656.036C967.154 652.691 969.917 650 973.261 650H1105.29C1132.92 650 1178.65 650.945 1197.99 656.036Z" fill="#E2231A"/>
<path d="M914.516 650H880.853C878.091 650 875.837 652.182 875.837 654.945V711.158C875.837 737.047 858.751 737.919 846.537 737.919H739.588C736.825 737.919 734.571 740.174 734.571 742.937V845.837C734.571 848.6 736.825 850.855 739.588 850.855H780.666C783.429 850.855 785.683 848.6 785.683 845.837V779.879C785.683 777.116 787.937 774.861 790.699 774.861H864.858C883.907 774.861 900.847 770.207 908.845 761.772C916.77 753.409 919.533 737.919 919.533 718.139V654.945C919.533 652.182 917.279 650 914.516 650Z" fill="#E2231A"/>
</g>
<defs>
<clipPath id="clip0_13_507">
<rect width="1500" height="1500" fill="white"/>
</clipPath>
</defs>
</svg>
