<?xml version="1.0" encoding="UTF-8"?>
<svg id="Camada_1" data-name="Camada 1" xmlns="http://www.w3.org/2000/svg" viewBox="0 0 1336.89 231.11">
  <defs>
    <style>
      .cls-1 {
        fill: #2a211a;
      }

      .cls-2 {
        fill: #e1251d;
      }
    </style>
  </defs>
  <path class="cls-1" d="M161.8,147.01c4.06,9.21,7.73,15.45,11.01,18.71,3.28,3.26,6.29,4.89,9.05,4.89v1.92h-56.63v-1.92c1.18,0,2.42-.19,3.74-.58,1.31-.38,2.52-1.02,3.64-1.92,1.11-.89,2.03-2.08,2.75-3.55.72-1.47,1.08-3.29,1.08-5.47,0-3.2-1.05-7.29-3.15-12.28l-4.92-10.55c-2.36,5.76-5.18,11.03-8.46,15.83-3.28,4.8-6.78,8.89-10.52,12.28-3.74,3.39-7.54,6.04-11.41,7.96-3.87,1.92-7.64,2.88-11.31,2.88-7.08,0-12.32-1.63-15.73-4.89-3.41-3.26-5.28-7.96-5.6-14.1-.33-6.14.79-13.62,3.34-22.45,2.56-8.83,6.26-18.8,11.11-29.93l30.48-68.5h1.97l49.56,111.68ZM78.03,131.08c0,7.04,1.97,12.38,5.9,16.02,3.93,3.65,8.58,5.47,13.96,5.47s10.49-1.85,15.73-5.56c5.24-3.71,9.24-9.4,12-17.08l-25.56-57.18-14.36,31.09c-2.62,6.01-4.56,11.23-5.8,15.64-1.25,4.41-1.87,8.28-1.87,11.61ZM276.73,145.65c.06-.12.13-.23.17-.35,1.01-2.74,2.09-5.46,2.86-8.28.82-3.01,1.15-6.11,1.29-9.22.22-4.72.06-9.47.06-14.19V46.99c0-13.25-11.87-11.66-11.87-11.66h-13.19v1.91c6.55.89,11.36,5.19,14.43,12.9,3.07,7.71,4.61,17.61,4.61,29.71v44.52c0,5.86-.94,11.05-2.81,15.57-1.87,4.52-4.31,8.25-7.32,11.18-3.01,2.93-6.45,5.16-10.32,6.69-3.88,1.53-7.82,2.29-11.83,2.29-1.1,0-2.2-.06-3.29-.17-3.03-.31-6.04-1.05-9.03-2.22-4.08-1.59-7.69-3.98-10.82-7.17-3.14-3.18-5.68-7.17-7.62-11.94-1.94-4.78-2.91-10.35-2.91-16.72V53.29c0-4.97.6-8.57,1.8-10.8,1.2-2.23,2.94-3.98,5.21-5.25v-1.91h-41.09v1.91c2.41,1.27,4.21,3.03,5.41,5.25,1.2,2.23,1.8,5.83,1.8,10.8v69.94c.13,8.15,1.63,15.32,4.51,21.5,2.87,6.18,6.65,11.34,11.32,15.48,4.68,4.14,10.02,7.23,16.03,9.27,6.01,2.04,12.09,3.06,18.24,3.06,2.4,0,4.78-.16,7.13-.47,3.67-.49,7.27-1.34,10.81-2.58,5.81-2.04,10.99-5.06,15.53-9.08,4.45-3.93,8.07-8.85,10.85-14.74M498.04,145.65c.06-.12.13-.23.17-.35,1.01-2.74,2.09-5.46,2.86-8.28.82-3.01,1.15-6.11,1.29-9.22.22-4.72.06-9.47.06-14.19V46.99c0-13.25-11.87-11.66-11.87-11.66h-13.19v1.91c6.55.89,11.36,5.19,14.43,12.9,3.07,7.71,4.61,17.61,4.61,29.71v44.52c0,5.86-.94,11.05-2.81,15.57-1.87,4.52-4.31,8.25-7.32,11.18-3.01,2.93-6.45,5.16-10.32,6.69-3.88,1.53-7.82,2.29-11.83,2.29-1.1,0-2.2-.06-3.29-.17-3.03-.31-6.04-1.05-9.03-2.22-4.08-1.59-7.69-3.98-10.82-7.17-3.14-3.18-5.68-7.17-7.62-11.94-1.94-4.78-2.91-10.35-2.91-16.72V53.29c0-4.97.6-8.57,1.8-10.8,1.2-2.23,2.94-3.98,5.21-5.25v-1.91h-41.09v1.91c2.41,1.27,4.21,3.03,5.41,5.25,1.2,2.23,1.8,5.83,1.8,10.8v69.94c.13,8.15,1.63,15.32,4.51,21.5,2.87,6.18,6.65,11.34,11.32,15.48,4.68,4.14,10.02,7.23,16.03,9.27,6.01,2.04,12.09,3.06,18.24,3.06,2.4,0,4.78-.16,7.13-.47,3.67-.49,7.27-1.34,10.81-2.58,5.81-2.04,10.99-5.06,15.53-9.08,4.45-3.93,8.07-8.85,10.85-14.74M638.41,42.82c1.28-2.33,3.07-4.16,5.37-5.5v-2h-34.44l-31.44,51.57-25.18-38.33-8.7-13.24h-31.4v2c2.43,1.33,4.25,3.17,5.47,5.5,1.22,2.33,1.82,6.1,1.82,11.29v102.32c0,5.2-.61,8.96-1.82,11.29-1.22,2.33-3.04,4.16-5.47,5.5v2h41.53v-2c-2.3-1.33-4.05-3.16-5.27-5.5-1.22-2.33-1.82-6.1-1.82-11.29V50.92l5.66,8.66,21.67,33.16,3.65,5.59,31.29,46.53v22.28c0,2.23.65,4.42,1.87,6.28l1.17,1.79h31.4v-2c-2.3-1.33-4.09-3.16-5.37-5.5-1.28-2.33-1.92-6.1-1.92-11.29V54.12c0-5.2.64-8.96,1.92-11.29ZM609.34,112.8v21.95l-27.74-42.24-.03-.05,27.77-45.55v65.88ZM500.65,172.26c-1.09.93-2.2,1.84-3.31,2.82-1.04.92-2.09,1.86-3.22,2.67-4.22,3.04-9.14,5.65-14.77,7.84-5.63,2.19-11.74,3.92-18.35,5.19-6.61,1.27-13.43,1.91-20.46,1.91-6.47,0-12.94-.6-19.41-1.8-6.47-1.2-12.66-3.07-18.56-5.61-5.91-2.54-11.46-5.9-16.67-10.06-5.2-4.16-9.78-9.22-13.71-15.15-3.94-5.93-7.1-12.82-9.49-20.66-2.39-7.84-3.8-16.7-4.22-26.59,2.14-1.09,4.17-2.26,6.12-3.48,4.84-3.04,9.1-6.46,12.76-10.29,5.13-5.37,8.93-10.91,11.39-16.63,1.28-2.98,2.18-5.94,2.72-8.9.5-2.73.69-5.44.55-8.15-.28-5.65-2.22-10.7-5.8-15.15-3.59-4.45-8.79-8.05-15.61-10.81-2.1-.85-4.38-1.56-6.84-2.15-5.55-1.32-12.02-1.98-19.42-1.98h-55.06v2.12c2.53,1.41,4.78,3.36,6.75,5.83,1.97,2.47,2.95,6.39,2.95,11.76v100.26c0,.18-.01.35-.01.53-.03,2.04-.2,3.86-.52,5.48-.48,2.42-1.28,4.39-2.42,5.86-1.97,2.54-4.22,4.45-6.75,5.72v2.33h47.46v-2.33c-2.39-1.27-4.57-3.18-6.54-5.72-1.14-1.47-1.94-3.44-2.42-5.86-.35-1.76-.53-3.75-.53-6.01v-26.11l5.26-2.8,5.08-2.71c.28,15.68,2.99,28.99,8.12,39.94,5.13,10.95,11.81,19.81,20.04,26.59,8.23,6.78,17.58,11.72,28.06,14.83,10.47,3.11,22.01,5.21,32.84,5.21,9,0,16.94-1.5,25.59-3.41,8.65-1.91,16.67-4.56,24.05-7.95,7.38-3.39,13.85-7.42,19.41-12.08,1.33-1.12,2.57-2.26,3.74-3.43.41-.36.81-.75,1.2-1.12v-9.94ZM342.97,113.48c-1.25.82-2.55,1.59-3.9,2.3l-6.56,3.41-5.26,2.73V41.42h11.81c5.62,0,10.34,1.45,14.13,4.34,3.8,2.9,6.65,6.6,8.54,11.12,1.9,4.52,2.81,9.61,2.74,15.25-.05,3.67-.48,7.31-1.3,10.92-.44,1.95-.99,3.89-1.65,5.82-1.9,5.51-4.71,10.63-8.44,15.36-2.83,3.59-6.21,6.67-10.13,9.24Z"/>
  <g>
    <path class="cls-1" d="M968.53,104.34s-.29.41-.29.9.29.9.29.9c4.21,5.12,6.42,8.78,6.42,16.19s-5.09,14.71-11.1,18.4c-6.02,3.69-11.65,4.65-32.35,4.65h-76.81c-1.31,0-2.41-1.08-2.41-2.41v-9.94c0-1.34,1.1-2.41,2.41-2.41h90.56c5.99,0,13.05-2.35,13.05-9.21s-8.2-8.9-13.4-8.9h-90.21c-1.31,0-2.41-1.08-2.41-2.41v-9.71c0-1.34,1.1-2.44,2.41-2.44h90.21c5.2,0,13.4-1.98,13.4-8.87s-7.06-9.22-13.05-9.22h-90.56c-1.31,0-2.41-1.08-2.41-2.41v-9.94c0-1.34,1.1-2.41,2.41-2.41h76.81c20.69,0,26.33.96,32.35,4.65,6.02,3.69,11.1,10.96,11.1,18.4s-2.21,11.08-6.42,16.19Z"/>
    <path class="cls-1" d="M1045.05,100.24c1.1,0,1.98.9,1.98,2.01v10.78c0,1.1-.87,1.98-1.98,1.98h-28.89c-7.61,0-14.39-1.86-17.58-5.23-3.17-3.34-4.27-9.53-4.27-17.44v-25.26c0-1.1.9-1.98,2.01-1.98h13.49c1.1,0,1.98.87,1.98,1.98v22.47c0,10.35,6.83,10.7,11.71,10.7h21.56Z"/>
    <path class="cls-1" d="M1240.82,67.51c7.73,2.06,19.79,8.26,25.49,18.72,5.67,10.46,5.29,19.04,5.29,19.04,0,0,.38,8.55-5.29,19.01-5.7,10.47-17.76,16.69-25.49,18.75-7.73,2.04-26.01,2.41-37.06,2.41h-52.78c-1.34,0-2.44-1.08-2.44-2.41v-9.94c0-1.34,1.1-2.41,2.44-2.41h46.85c17.52,0,30.92-.47,37.38-2.01,6.42-1.54,11.45-4.83,15.64-10.44,4.15-5.61,3.69-12.96,3.69-12.96,0,0,.46-7.35-3.69-12.96-4.19-5.61-9.21-8.9-15.64-10.44-6.45-1.54-19.85-2.01-37.38-2.01h-46.85c-1.34,0-2.44-1.08-2.44-2.41v-9.94c0-1.34,1.1-2.41,2.44-2.41h52.78c11.04,0,29.32.38,37.06,2.41Z"/>
    <path class="cls-1" d="M1127.5,65.1h-13.46c-1.1,0-2.01.87-2.01,1.98v22.47c0,10.35-6.83,10.7-11.71,10.7h-42.75c-1.1,0-2.01.9-2.01,2.01v41.13c0,1.1.9,2.01,2.01,2.01h16.42c1.1,0,2.01-.9,2.01-2.01v-26.37c0-1.1.9-2.01,2.01-2.01h29.64c7.61,0,14.39-1.86,17.58-5.23,3.17-3.34,4.27-9.53,4.27-17.44v-25.26c0-1.1-.9-1.98-2.01-1.98Z"/>
  </g>
  <g>
    <path class="cls-2" d="M739.48,80.91c0-.91-.52-1.43-1.43-1.43h-2.72v-3.83h4.61c2.79,0,3.96,1.17,3.96,3.96v11.81c0,1.49-.13,2.66-.13,2.66h.13s2.72-6.23,11.09-6.23,14.21,7.01,14.21,17.13-6.16,17.06-14.73,17.06c-7.79,0-10.71-6.29-10.71-6.29h-.13s.13,1.1.13,2.66v2.85h-4.28v-40.36ZM754.14,118.15c5.77,0,10.51-4.87,10.51-13.17s-4.28-13.11-10.32-13.11c-5.45,0-10.58,3.89-10.58,13.17,0,6.55,3.37,13.11,10.38,13.11Z"/>
    <path class="cls-2" d="M780.03,130.93c2.86,0,4.8-2.34,6.03-5.32l1.95-4.48-11.48-27.18c-.52-1.17-1.1-1.49-2.27-1.49h-.65v-3.83h2.01c2.92,0,3.83.65,5,3.57l8.37,20.37c.65,1.62,1.17,3.5,1.17,3.5h.13s.46-1.88,1.1-3.5l8.04-20.37c1.1-2.92,2.08-3.57,5.06-3.57h2.01v3.83h-.65c-1.17,0-1.82.32-2.27,1.49l-14.08,34.13c-1.69,4.15-5,6.81-9.34,6.81s-7.07-3.18-7.07-3.18l2.08-3.24c0,.06,2.08,2.46,4.87,2.46Z"/>
  </g>
  <path class="cls-2" d="M689.55,189.62c-1.52,0-2.75-1.23-2.75-2.75V23.67c0-1.52,1.23-2.75,2.75-2.75s2.75,1.23,2.75,2.75v163.2c0,1.52-1.23,2.75-2.75,2.75Z"/>
</svg>