<?xml version="1.0" encoding="UTF-8"?>
<svg fill="#ffffff" id="Camada_1" data-name="Camada 1" xmlns="http://www.w3.org/2000/svg" viewBox="0 0 695.9 252.44">
  <defs>
    <style>
      .cls-1 {
        fill: #fff;
      }

      .cls-2 {
        fill: #e1251d;
      }
    </style>
  </defs>
  <g>
    <rect class="cls-2" x="506.04" y="187.77" width="131.16" height="25.91" rx="12.96" ry="12.96"/>
    <g>
      <g>
        <path class="cls-1" d="M564.24,200.78s-.06.09-.06.19.06.19.06.19c.89,1.08,1.36,1.85,1.36,3.42s-1.07,3.11-2.34,3.88c-1.27.78-2.46.98-6.83.98h-16.22c-.28,0-.51-.23-.51-.51v-2.1c0-.28.23-.51.51-.51h19.12c1.26,0,2.75-.5,2.75-1.95s-1.73-1.88-2.83-1.88h-19.04c-.28,0-.51-.23-.51-.51v-2.05c0-.28.23-.52.51-.52h19.04c1.1,0,2.83-.42,2.83-1.87s-1.49-1.95-2.75-1.95h-19.12c-.28,0-.51-.23-.51-.51v-2.1c0-.28.23-.51.51-.51h16.22c4.37,0,5.56.2,6.83.98,1.27.78,2.34,2.31,2.34,3.88s-.47,2.34-1.36,3.42Z"/>
        <path class="cls-1" d="M580.4,199.92c.23,0,.42.19.42.42v2.28c0,.23-.18.42-.42.42h-6.1c-1.61,0-3.04-.39-3.71-1.1-.67-.71-.9-2.01-.9-3.68v-5.33c0-.23.19-.42.42-.42h2.85c.23,0,.42.18.42.42v4.74c0,2.18,1.44,2.26,2.47,2.26h4.55Z"/>
        <path class="cls-1" d="M621.72,193.01c1.63.44,4.18,1.74,5.38,3.95,1.2,2.21,1.12,4.02,1.12,4.02,0,0,.08,1.8-1.12,4.01-1.2,2.21-3.75,3.52-5.38,3.96-1.63.43-5.49.51-7.82.51h-11.14c-.28,0-.52-.23-.52-.51v-2.1c0-.28.23-.51.52-.51h9.89c3.7,0,6.53-.1,7.89-.42,1.36-.33,2.42-1.02,3.3-2.2.88-1.18.78-2.74.78-2.74,0,0,.1-1.55-.78-2.74-.88-1.18-1.95-1.88-3.3-2.2-1.36-.33-4.19-.42-7.89-.42h-9.89c-.28,0-.52-.23-.52-.51v-2.1c0-.28.23-.51.52-.51h11.14c2.33,0,6.19.08,7.82.51Z"/>
        <path class="cls-1" d="M597.8,192.5h-2.84c-.23,0-.42.18-.42.42v4.74c0,2.18-1.44,2.26-2.47,2.26h-9.02c-.23,0-.42.19-.42.42v8.68c0,.23.19.42.42.42h3.47c.23,0,.42-.19.42-.42v-5.57c0-.23.19-.42.42-.42h6.26c1.61,0,3.04-.39,3.71-1.1.67-.71.9-2.01.9-3.68v-5.33c0-.23-.19-.42-.42-.42Z"/>
      </g>
      <g>
        <path class="cls-1" d="M515.89,195.84c0-.19-.11-.3-.3-.3h-.58v-.81h.97c.59,0,.84.25.84.84v2.49c0,.32-.03.56-.03.56h.03s.58-1.31,2.34-1.31,3,1.48,3,3.62-1.3,3.6-3.11,3.6c-1.64,0-2.26-1.33-2.26-1.33h-.03s.03.23.03.56v.6h-.9v-8.52ZM518.98,203.7c1.22,0,2.22-1.03,2.22-2.78s-.9-2.77-2.18-2.77c-1.15,0-2.23.82-2.23,2.78,0,1.38.71,2.77,2.19,2.77Z"/>
        <path class="cls-1" d="M524.45,206.4c.6,0,1.01-.49,1.27-1.12l.41-.95-2.42-5.74c-.11-.25-.23-.32-.48-.32h-.14v-.81h.42c.62,0,.81.14,1.05.75l1.77,4.3c.14.34.25.74.25.74h.03s.1-.4.23-.74l1.7-4.3c.23-.62.44-.75,1.07-.75h.42v.81h-.14c-.25,0-.38.07-.48.32l-2.97,7.2c-.36.88-1.05,1.44-1.97,1.44s-1.49-.67-1.49-.67l.44-.68s.44.52,1.03.52Z"/>
      </g>
    </g>
  </g>
  <path class="cls-1" d="M155.22,150.5c4.06,9.21,7.73,15.45,11.01,18.71,3.28,3.26,6.29,4.89,9.05,4.89v1.92h-56.63v-1.92c1.18,0,2.42-.19,3.74-.58,1.31-.38,2.52-1.02,3.64-1.92,1.11-.89,2.03-2.08,2.75-3.55.72-1.47,1.08-3.29,1.08-5.47,0-3.2-1.05-7.29-3.15-12.28l-4.92-10.55c-2.36,5.76-5.18,11.03-8.46,15.83-3.28,4.8-6.78,8.89-10.52,12.28-3.74,3.39-7.54,6.04-11.41,7.96-3.87,1.92-7.64,2.88-11.31,2.88-7.08,0-12.32-1.63-15.73-4.89-3.41-3.26-5.28-7.96-5.6-14.1-.33-6.14.79-13.62,3.34-22.45,2.56-8.83,6.26-18.8,11.11-29.93l30.48-68.5h1.97l49.56,111.68ZM71.45,134.58c0,7.04,1.97,12.38,5.9,16.02,3.93,3.65,8.58,5.47,13.96,5.47s10.49-1.85,15.73-5.56c5.24-3.71,9.24-9.4,12-17.08l-25.56-57.18-14.36,31.09c-2.62,6.01-4.56,11.23-5.8,15.64-1.25,4.41-1.87,8.28-1.87,11.61ZM270.15,149.14c.06-.12.13-.23.17-.35,1.01-2.74,2.09-5.46,2.86-8.28.82-3.01,1.15-6.11,1.29-9.22.22-4.72.06-9.47.06-14.19V50.49c0-13.25-11.87-11.66-11.87-11.66h-13.19v1.91c6.55.89,11.36,5.19,14.43,12.9,3.07,7.71,4.61,17.61,4.61,29.71v44.52c0,5.86-.94,11.05-2.81,15.57-1.87,4.52-4.31,8.25-7.32,11.18-3.01,2.93-6.45,5.16-10.32,6.69-3.88,1.53-7.82,2.29-11.83,2.29-1.1,0-2.2-.06-3.29-.17-3.03-.31-6.04-1.05-9.03-2.22-4.08-1.59-7.69-3.98-10.82-7.17-3.14-3.18-5.68-7.17-7.62-11.94-1.94-4.78-2.91-10.35-2.91-16.72V56.79c0-4.97.6-8.57,1.8-10.8,1.2-2.23,2.94-3.98,5.21-5.25v-1.91h-41.09v1.91c2.41,1.27,4.21,3.03,5.41,5.25,1.2,2.23,1.8,5.83,1.8,10.8v69.94c.13,8.15,1.63,15.32,4.51,21.5,2.87,6.18,6.65,11.34,11.32,15.48,4.68,4.14,10.02,7.23,16.03,9.27,6.01,2.04,12.09,3.06,18.24,3.06,2.4,0,4.78-.16,7.13-.47,3.67-.49,7.27-1.34,10.81-2.58,5.81-2.04,10.99-5.06,15.53-9.08,4.45-3.93,8.07-8.85,10.85-14.74M491.45,149.14c.06-.12.13-.23.17-.35,1.01-2.74,2.09-5.46,2.86-8.28.82-3.01,1.15-6.11,1.29-9.22.22-4.72.06-9.47.06-14.19V50.49c0-13.25-11.87-11.66-11.87-11.66h-13.19v1.91c6.55.89,11.36,5.19,14.43,12.9,3.07,7.71,4.61,17.61,4.61,29.71v44.52c0,5.86-.94,11.05-2.81,15.57-1.87,4.52-4.31,8.25-7.32,11.18-3.01,2.93-6.45,5.16-10.32,6.69-3.88,1.53-7.82,2.29-11.83,2.29-1.1,0-2.2-.06-3.29-.17-3.03-.31-6.04-1.05-9.03-2.22-4.08-1.59-7.69-3.98-10.82-7.17-3.14-3.18-5.68-7.17-7.62-11.94-1.94-4.78-2.91-10.35-2.91-16.72V56.79c0-4.97.6-8.57,1.8-10.8,1.2-2.23,2.94-3.98,5.21-5.25v-1.91h-41.09v1.91c2.41,1.27,4.21,3.03,5.41,5.25,1.2,2.23,1.8,5.83,1.8,10.8v69.94c.13,8.15,1.63,15.32,4.51,21.5,2.87,6.18,6.65,11.34,11.32,15.48,4.68,4.14,10.02,7.23,16.03,9.27,6.01,2.04,12.09,3.06,18.24,3.06,2.4,0,4.78-.16,7.13-.47,3.67-.49,7.27-1.34,10.81-2.58,5.81-2.04,10.99-5.06,15.53-9.08,4.45-3.93,8.07-8.85,10.85-14.74M631.83,46.32c1.28-2.33,3.07-4.16,5.37-5.5v-2h-34.44l-31.44,51.57-25.18-38.33-8.7-13.24h-31.4v2c2.43,1.33,4.25,3.17,5.47,5.5,1.22,2.33,1.82,6.1,1.82,11.29v102.32c0,5.2-.61,8.96-1.82,11.29-1.22,2.33-3.04,4.16-5.47,5.5v2h41.53v-2c-2.3-1.33-4.05-3.16-5.27-5.5-1.22-2.33-1.82-6.1-1.82-11.29V54.41l5.66,8.66,21.67,33.16,3.65,5.59,31.29,46.53v22.28c0,2.23.65,4.42,1.87,6.28l1.17,1.79h31.4v-2c-2.3-1.33-4.09-3.16-5.37-5.5-1.28-2.33-1.92-6.1-1.92-11.29V57.61c0-5.2.64-8.96,1.92-11.29ZM602.75,116.29v21.95l-27.74-42.24-.03-.05,27.77-45.55v65.88ZM494.06,175.75c-1.09.93-2.2,1.84-3.31,2.82-1.04.92-2.09,1.86-3.22,2.67-4.22,3.04-9.14,5.65-14.77,7.84-5.63,2.19-11.74,3.92-18.35,5.19-6.61,1.27-13.43,1.91-20.46,1.91-6.47,0-12.94-.6-19.41-1.8-6.47-1.2-12.66-3.07-18.56-5.61-5.91-2.54-11.46-5.9-16.67-10.06-5.2-4.16-9.78-9.22-13.71-15.15-3.94-5.93-7.1-12.82-9.49-20.66-2.39-7.84-3.8-16.7-4.22-26.59,2.14-1.09,4.17-2.26,6.12-3.48,4.84-3.04,9.1-6.46,12.76-10.29,5.13-5.37,8.93-10.91,11.39-16.63,1.28-2.98,2.18-5.94,2.72-8.9.5-2.73.69-5.44.55-8.15-.28-5.65-2.22-10.7-5.8-15.15-3.59-4.45-8.79-8.05-15.61-10.81-2.1-.85-4.38-1.56-6.84-2.15-5.55-1.32-12.02-1.98-19.42-1.98h-55.06v2.12c2.53,1.41,4.78,3.36,6.75,5.83,1.97,2.47,2.95,6.39,2.95,11.76v100.26c0,.18-.01.35-.01.53-.03,2.04-.2,3.86-.52,5.48-.48,2.42-1.28,4.39-2.42,5.86-1.97,2.54-4.22,4.45-6.75,5.72v2.33h47.46v-2.33c-2.39-1.27-4.57-3.18-6.54-5.72-1.14-1.47-1.94-3.44-2.42-5.86-.35-1.76-.53-3.75-.53-6.01v-26.11l5.26-2.8,5.08-2.71c.28,15.68,2.99,28.99,8.12,39.94,5.13,10.95,11.81,19.81,20.04,26.59,8.23,6.78,17.58,11.72,28.06,14.83,10.47,3.11,22.01,5.21,32.84,5.21,9,0,16.94-1.5,25.59-3.41,8.65-1.91,16.67-4.56,24.05-7.95,7.38-3.39,13.85-7.42,19.41-12.08,1.33-1.12,2.57-2.26,3.74-3.43.41-.36.81-.75,1.2-1.12v-9.94ZM336.39,116.97c-1.25.82-2.55,1.59-3.9,2.3l-6.56,3.41-5.26,2.73V44.91h11.81c5.62,0,10.34,1.45,14.13,4.34,3.8,2.9,6.65,6.6,8.54,11.12,1.9,4.52,2.81,9.61,2.74,15.25-.05,3.67-.48,7.31-1.3,10.92-.44,1.95-.99,3.89-1.65,5.82-1.9,5.51-4.71,10.63-8.44,15.36-2.83,3.59-6.21,6.67-10.13,9.24Z"/>
</svg>