<?xml version="1.0" encoding="UTF-8"?>
<svg fill="#ffffff" id="Camada_1" data-name="Camada 1" xmlns="http://www.w3.org/2000/svg" viewBox="0 0 695.9 252.44">
  <defs>
    <style>
      .cls-1 {
        fill: #fff;
      }

      .cls-2 {
        fill: #e1251d;
      }
    </style>
  </defs>
  <g>
    <rect class="cls-2" x="427.63" y="43.62" width="19.63" height="99.37" rx="9.82" ry="9.82"/>
    <g>
      <g>
        <path class="cls-1" d="M437.49,98.89s.07.05.14.05.14-.05.14-.05c.82-.67,1.4-1.03,2.59-1.03s2.35.81,2.94,1.78c.59.96.74,1.86.74,5.17v12.29c0,.21-.17.39-.39.39h-1.59c-.21,0-.39-.18-.39-.39v-14.48c0-.96-.38-2.09-1.47-2.09s-1.42,1.31-1.42,2.14v14.43c0,.21-.17.39-.39.39h-1.55c-.21,0-.39-.18-.39-.39v-14.43c0-.83-.32-2.14-1.42-2.14s-1.47,1.13-1.47,2.09v14.48c0,.21-.17.39-.39.39h-1.59c-.21,0-.39-.18-.39-.39v-12.29c0-3.31.15-4.21.74-5.17.59-.96,1.75-1.78,2.94-1.78s1.77.35,2.59,1.03Z"/>
        <path class="cls-1" d="M436.83,86.65c0-.18.14-.32.32-.32h1.72c.18,0,.32.14.32.32v4.62c0,1.22-.3,2.3-.84,2.81-.53.51-1.52.68-2.79.68h-4.04c-.18,0-.32-.14-.32-.32v-2.16c0-.18.14-.32.32-.32h3.59c1.66,0,1.71-1.09,1.71-1.87v-3.45Z"/>
        <path class="cls-1" d="M431.6,55.34c.33-1.24,1.32-3.17,2.99-4.08,1.67-.91,3.05-.85,3.05-.85,0,0,1.37-.06,3.04.85,1.67.91,2.67,2.84,3,4.08.33,1.24.39,4.16.39,5.93v8.44c0,.21-.17.39-.39.39h-1.59c-.21,0-.39-.18-.39-.39v-7.49c0-2.8-.07-4.95-.32-5.98-.25-1.03-.77-1.83-1.67-2.5-.9-.66-2.07-.59-2.07-.59,0,0-1.18-.07-2.07.59-.9.67-1.42,1.47-1.67,2.5-.25,1.03-.32,3.17-.32,5.98v7.49c0,.21-.17.39-.39.39h-1.59c-.21,0-.39-.18-.39-.39v-8.44c0-1.77.06-4.69.39-5.93Z"/>
        <path class="cls-1" d="M431.21,73.46v2.15c0,.18.14.32.32.32h3.59c1.66,0,1.71,1.09,1.71,1.87v6.84c0,.18.14.32.32.32h6.58c.18,0,.32-.14.32-.32v-2.63c0-.18-.14-.32-.32-.32h-4.22c-.18,0-.32-.14-.32-.32v-4.74c0-1.22-.3-2.3-.84-2.81-.53-.51-1.52-.68-2.79-.68h-4.04c-.18,0-.32.14-.32.32Z"/>
      </g>
      <g>
        <path class="cls-1" d="M433.74,135.52c-.15,0-.23.08-.23.23v.44h-.61v-.74c0-.45.19-.63.63-.63h1.89c.24,0,.43.02.43.02v-.02s-1-.44-1-1.77,1.12-2.27,2.74-2.27,2.73.99,2.73,2.36c0,1.25-1.01,1.71-1.01,1.71v.02s.18-.02.43-.02h.46v.68h-6.45ZM439.7,133.18c0-.92-.78-1.68-2.11-1.68s-2.1.68-2.1,1.65c0,.87.62,1.69,2.11,1.69,1.05,0,2.1-.54,2.1-1.66Z"/>
        <path class="cls-1" d="M441.74,129.04c0-.46-.37-.77-.85-.97l-.72-.31-4.35,1.84c-.19.08-.24.18-.24.36v.1h-.61v-.32c0-.47.1-.61.57-.8l3.26-1.34c.26-.1.56-.19.56-.19v-.02s-.3-.07-.56-.18l-3.26-1.29c-.47-.18-.57-.33-.57-.81v-.32h.61v.1c0,.19.05.29.24.36l5.46,2.25c.66.27,1.09.8,1.09,1.49s-.51,1.13-.51,1.13l-.52-.33s.39-.33.39-.78Z"/>
      </g>
    </g>
  </g>
  <g>
    <path class="cls-1" d="M155.22,150.5c4.06,9.21,7.73,15.45,11.01,18.71,3.28,3.26,6.29,4.89,9.05,4.89v1.92h-56.63v-1.92c1.18,0,2.42-.19,3.74-.58,1.31-.38,2.52-1.02,3.64-1.92,1.11-.89,2.03-2.08,2.75-3.55.72-1.47,1.08-3.29,1.08-5.47,0-3.2-1.05-7.29-3.15-12.28l-4.92-10.55c-2.36,5.76-5.18,11.03-8.46,15.83-3.28,4.8-6.78,8.89-10.52,12.28-3.74,3.39-7.54,6.04-11.41,7.96-3.87,1.92-7.64,2.88-11.31,2.88-7.08,0-12.32-1.63-15.73-4.89-3.41-3.26-5.28-7.96-5.6-14.1-.33-6.14.79-13.62,3.34-22.45,2.56-8.83,6.26-18.8,11.11-29.93l30.48-68.5h1.97l49.56,111.68ZM71.45,134.58c0,7.04,1.97,12.38,5.9,16.02,3.93,3.65,8.58,5.47,13.96,5.47s10.49-1.85,15.73-5.56c5.24-3.71,9.24-9.4,12-17.08l-25.56-57.18-14.36,31.09c-2.62,6.01-4.56,11.23-5.8,15.64-1.25,4.41-1.87,8.28-1.87,11.61ZM270.15,149.14c.06-.12.13-.23.17-.35,1.01-2.74,2.09-5.46,2.86-8.28.82-3.01,1.15-6.11,1.29-9.22.22-4.72.06-9.47.06-14.19V50.49c0-13.25-11.87-11.66-11.87-11.66h-13.19v1.91c6.55.89,11.36,5.19,14.43,12.9,3.07,7.71,4.61,17.61,4.61,29.71v44.52c0,5.86-.94,11.05-2.81,15.57-1.87,4.52-4.31,8.25-7.32,11.18-3.01,2.93-6.45,5.16-10.32,6.69-3.88,1.53-7.82,2.29-11.83,2.29-1.1,0-2.2-.06-3.29-.17-3.03-.31-6.04-1.05-9.03-2.22-4.08-1.59-7.69-3.98-10.82-7.17-3.14-3.18-5.68-7.17-7.62-11.94-1.94-4.78-2.91-10.35-2.91-16.72V56.79c0-4.97.6-8.57,1.8-10.8,1.2-2.23,2.94-3.98,5.21-5.25v-1.91h-41.09v1.91c2.41,1.27,4.21,3.03,5.41,5.25,1.2,2.23,1.8,5.83,1.8,10.8v69.94c.13,8.15,1.63,15.32,4.51,21.5,2.87,6.18,6.65,11.34,11.32,15.48,4.68,4.14,10.02,7.23,16.03,9.27,6.01,2.04,12.09,3.06,18.24,3.06,2.4,0,4.78-.16,7.13-.47,3.67-.49,7.27-1.34,10.81-2.58,5.81-2.04,10.99-5.06,15.53-9.08,4.45-3.93,8.07-8.85,10.85-14.74M491.45,149.14c.06-.12.13-.23.17-.35,1.01-2.74,2.09-5.46,2.86-8.28.82-3.01,1.15-6.11,1.29-9.22.22-4.72.06-9.47.06-14.19V50.49c0-13.25-11.87-11.66-11.87-11.66h-13.19v1.91c6.55.89,11.36,5.19,14.43,12.9,3.07,7.71,4.61,17.61,4.61,29.71v44.52c0,5.86-.94,11.05-2.81,15.57-1.87,4.52-4.31,8.25-7.32,11.18-3.01,2.93-6.45,5.16-10.32,6.69-3.88,1.53-7.82,2.29-11.83,2.29-1.1,0-2.2-.06-3.29-.17-3.03-.31-6.04-1.05-9.03-2.22-4.08-1.59-7.69-3.98-10.82-7.17-3.14-3.18-5.68-7.17-7.62-11.94-1.94-4.78-2.91-10.35-2.91-16.72V56.79c0-4.97.6-8.57,1.8-10.8,1.2-2.23,2.94-3.98,5.21-5.25v-1.91h-41.09v1.91c2.41,1.27,4.21,3.03,5.41,5.25,1.2,2.23,1.8,5.83,1.8,10.8v69.94c.13,8.15,1.63,15.32,4.51,21.5,2.87,6.18,6.65,11.34,11.32,15.48,4.68,4.14,10.02,7.23,16.03,9.27,6.01,2.04,12.09,3.06,18.24,3.06,2.4,0,4.78-.16,7.13-.47,3.67-.49,7.27-1.34,10.81-2.58,5.81-2.04,10.99-5.06,15.53-9.08,4.45-3.93,8.07-8.85,10.85-14.74M631.83,46.32c1.28-2.33,3.07-4.16,5.37-5.5v-2h-34.44l-31.44,51.57-25.18-38.33-8.7-13.24h-31.4v2c2.43,1.33,4.25,3.17,5.47,5.5,1.22,2.33,1.82,6.1,1.82,11.29v102.32c0,5.2-.61,8.96-1.82,11.29-1.22,2.33-3.04,4.16-5.47,5.5v2h41.53v-2c-2.3-1.33-4.05-3.16-5.27-5.5-1.22-2.33-1.82-6.1-1.82-11.29V54.41l5.66,8.66,21.67,33.16,3.65,5.59,31.29,46.53v22.28c0,2.23.65,4.42,1.87,6.28l1.17,1.79h31.4v-2c-2.3-1.33-4.09-3.16-5.37-5.5-1.28-2.33-1.92-6.1-1.92-11.29V57.61c0-5.2.64-8.96,1.92-11.29ZM602.75,116.29v21.95l-27.74-42.24-.03-.05,27.77-45.55v65.88ZM494.06,175.75c-1.09.93-2.2,1.84-3.31,2.82-1.04.92-2.09,1.86-3.22,2.67-4.22,3.04-9.14,5.65-14.77,7.84-5.63,2.19-11.74,3.92-18.35,5.19-6.61,1.27-13.43,1.91-20.46,1.91-6.47,0-12.94-.6-19.41-1.8-6.47-1.2-12.66-3.07-18.56-5.61-5.91-2.54-11.46-5.9-16.67-10.06-5.2-4.16-9.78-9.22-13.71-15.15-3.94-5.93-7.1-12.82-9.49-20.66-2.39-7.84-3.8-16.7-4.22-26.59,2.14-1.09,4.17-2.26,6.12-3.48,4.84-3.04,9.1-6.46,12.76-10.29,5.13-5.37,8.93-10.91,11.39-16.63,1.28-2.98,2.18-5.94,2.72-8.9.5-2.73.69-5.44.55-8.15-.28-5.65-2.22-10.7-5.8-15.15-3.59-4.45-8.79-8.05-15.61-10.81-2.1-.85-4.38-1.56-6.84-2.15-5.55-1.32-12.02-1.98-19.42-1.98h-55.06v2.12c2.53,1.41,4.78,3.36,6.75,5.83,1.97,2.47,2.95,6.39,2.95,11.76v100.26c0,.18-.01.35-.01.53-.03,2.04-.2,3.86-.52,5.48-.48,2.42-1.28,4.39-2.42,5.86-1.97,2.54-4.22,4.45-6.75,5.72v2.33h47.46v-2.33c-2.39-1.27-4.57-3.18-6.54-5.72-1.14-1.47-1.94-3.44-2.42-5.86-.35-1.76-.53-3.75-.53-6.01v-26.11l5.26-2.8,5.08-2.71c.28,15.68,2.99,28.99,8.12,39.94,5.13,10.95,11.81,19.81,20.04,26.59,8.23,6.78,17.58,11.72,28.06,14.83,10.47,3.11,22.01,5.21,32.84,5.21,9,0,16.94-1.5,25.59-3.41,8.65-1.91,16.67-4.56,24.05-7.95,7.38-3.39,13.85-7.42,19.41-12.08,1.33-1.12,2.57-2.26,3.74-3.43.41-.36.81-.75,1.2-1.12v-9.94ZM336.39,116.97c-1.25.82-2.55,1.59-3.9,2.3l-6.56,3.41-5.26,2.73V44.91h11.81c5.62,0,10.34,1.45,14.13,4.34,3.8,2.9,6.65,6.6,8.54,11.12,1.9,4.52,2.81,9.61,2.74,15.25-.05,3.67-.48,7.31-1.3,10.92-.44,1.95-.99,3.89-1.65,5.82-1.9,5.51-4.71,10.63-8.44,15.36-2.83,3.59-6.21,6.67-10.13,9.24Z"/>
    <g>
      <path class="cls-1" d="M77.47,197.91h-.9v-3.64c-.73-.93-1.7-1.68-2.92-2.23-1.22-.56-2.61-.83-4.17-.83-2.82,0-5.11.98-6.88,2.94-1.76,1.96-2.65,4.53-2.65,7.7v.31c0,3.19.88,5.76,2.63,7.73,1.75,1.97,4,2.95,6.73,2.95,1.57,0,2.99-.28,4.26-.83,1.27-.56,2.27-1.3,2.99-2.23v-3.64h.9v3.95c-.8,1.11-1.92,1.99-3.37,2.63-1.45.64-3.04.96-4.79.96-3.02,0-5.48-1.07-7.39-3.2-1.91-2.13-2.86-4.91-2.86-8.32v-.28c0-3.42.96-6.2,2.88-8.33,1.92-2.13,4.43-3.19,7.53-3.19,1.72,0,3.28.32,4.68.96,1.4.64,2.5,1.52,3.31,2.63v3.95Z"/>
      <path class="cls-1" d="M91.47,191.23v-.86h6.39v.86h-2.74v21.59h2.74v.86h-6.39v-.86h2.74v-21.59h-2.74Z"/>
      <path class="cls-1" d="M134.97,190.37v.86h-2.74v22.45h-.91l-15.7-21.71-.1.03v20.82h2.74v.86h-6.41v-.86h2.74v-21.59h-2.74v-.86h3.67l15.7,21.66.1-.03v-20.77h-2.74v-.86h6.39Z"/>
      <path class="cls-1" d="M148.97,213.68v-.86h2.74v-21.59h-2.74v-.86h17.64v4.69h-.91v-3.83h-13.08v9.86h10.59v.86h-10.59v10.86h13.08v-3.83h.91v4.69h-17.64Z"/>
      <path class="cls-1" d="M195.07,213.68h-.72l-10-21.71-.1.03v20.82h2.74v.86h-6.39v-.86h2.74v-21.59h-2.74v-.86h4.04l10.02,21.94h.1l10.05-21.94h4.07v.86h-2.74v21.59h2.74v.86h-6.39v-.86h2.74v-20.93l-.1-.03-10.05,21.83Z"/>
      <path class="cls-1" d="M222.87,212.82h1.8l8.81-22.45h1.11l8.83,22.45h1.8v.86h-5.2v-.86h2.4l-2.4-6.1h-11.97l-2.39,6.1h2.4v.86h-5.2v-.86ZM228.39,205.85h11.3l-5.13-13.13-.47-1.31h-.1l-.45,1.31-5.14,13.13Z"/>
    </g>
  </g>
</svg>